<?xml version="1.0" encoding="UTF-8"?>
<svg xmlns="http://www.w3.org/2000/svg" viewBox="0 0 900 500" width="900" height="500">
  <defs>
    <linearGradient id="acGrad" x1="0%" y1="0%" x2="100%" y2="100%">
      <stop offset="0%" style="stop-color:#FF9800;stop-opacity:1" />
      <stop offset="100%" style="stop-color:#F57C00;stop-opacity:1" />
    </linearGradient>
    <linearGradient id="dcGrad" x1="0%" y1="0%" x2="100%" y2="100%">
      <stop offset="0%" style="stop-color:#2196F3;stop-opacity:1" />
      <stop offset="100%" style="stop-color:#1976D2;stop-opacity:1" />
    </linearGradient>
    <linearGradient id="safetyGrad" x1="0%" y1="0%" x2="100%" y2="100%">
      <stop offset="0%" style="stop-color:#4CAF50;stop-opacity:1" />
      <stop offset="100%" style="stop-color:#388E3C;stop-opacity:1" />
    </linearGradient>
    <linearGradient id="outputGrad" x1="0%" y1="0%" x2="100%" y2="100%">
      <stop offset="0%" style="stop-color:#9C27B0;stop-opacity:1" />
      <stop offset="100%" style="stop-color:#7B1FA2;stop-opacity:1" />
    </linearGradient>
    <filter id="shadow" x="-20%" y="-20%" width="140%" height="140%">
      <feDropShadow dx="3" dy="3" stdDeviation="3" flood-opacity="0.3"/>
    </filter>
    <marker id="arrowhead" markerWidth="10" markerHeight="7" refX="9" refY="3.5" orient="auto">
      <polygon points="0 0, 10 3.5, 0 7" fill="#333"/>
    </marker>
  </defs>
  
  <rect width="900" height="500" fill="#f8f9fa"/>
  
  <text x="450" y="35" text-anchor="middle" font-family="Arial, sans-serif" font-size="24" font-weight="bold" fill="#333">
    Systemübersicht / System Overview
  </text>
  
  <rect x="20" y="60" width="200" height="180" rx="10" fill="#FFF3E0" stroke="#FF9800" stroke-width="2"/>
  <text x="120" y="85" text-anchor="middle" font-family="Arial, sans-serif" font-size="14" font-weight="bold" fill="#E65100">AC Eingang / AC Input</text>
  
  <rect x="40" y="100" width="160" height="50" rx="8" fill="url(#acGrad)" filter="url(#shadow)"/>
  <text x="120" y="120" text-anchor="middle" font-family="Arial, sans-serif" font-size="11" fill="white" font-weight="bold">Generator</text>
  <text x="120" y="138" text-anchor="middle" font-family="Arial, sans-serif" font-size="10" fill="white">230V AC</text>
  
  <rect x="40" y="165" width="70" height="60" rx="5" fill="#fff" stroke="#FF9800" stroke-width="2"/>
  <text x="75" y="185" text-anchor="middle" font-family="Arial, sans-serif" font-size="9" fill="#333" font-weight="bold">CEE</text>
  <text x="75" y="200" text-anchor="middle" font-family="Arial, sans-serif" font-size="8" fill="#666">Stecker</text>
  <text x="75" y="215" text-anchor="middle" font-family="Arial, sans-serif" font-size="8" fill="#666">Connector</text>
  
  <rect x="130" y="165" width="70" height="60" rx="5" fill="#fff" stroke="#FF9800" stroke-width="2"/>
  <text x="165" y="185" text-anchor="middle" font-family="Arial, sans-serif" font-size="9" fill="#333" font-weight="bold">RCBO</text>
  <text x="165" y="200" text-anchor="middle" font-family="Arial, sans-serif" font-size="8" fill="#666">FI/LS</text>
  <text x="165" y="215" text-anchor="middle" font-family="Arial, sans-serif" font-size="8" fill="#666">20A 30mA</text>
  
  <rect x="240" y="60" width="400" height="320" rx="10" fill="#E3F2FD" stroke="#2196F3" stroke-width="2"/>
  <text x="440" y="85" text-anchor="middle" font-family="Arial, sans-serif" font-size="14" font-weight="bold" fill="#1565C0">Ladegerät / Charger Unit</text>
  
  <rect x="260" y="110" width="180" height="80" rx="8" fill="url(#dcGrad)" filter="url(#shadow)"/>
  <text x="350" y="135" text-anchor="middle" font-family="Arial, sans-serif" font-size="12" fill="white" font-weight="bold">MeanWell</text>
  <text x="350" y="155" text-anchor="middle" font-family="Arial, sans-serif" font-size="11" fill="white">CSP-3000-400</text>
  <text x="350" y="175" text-anchor="middle" font-family="Arial, sans-serif" font-size="10" fill="#BBDEFB">400V DC / 7.5A / 3000W</text>
  
  <rect x="260" y="210" width="360" height="150" rx="8" fill="#fff" stroke="#1976D2" stroke-width="1" stroke-dasharray="5,5"/>
  <text x="440" y="230" text-anchor="middle" font-family="Arial, sans-serif" font-size="11" font-weight="bold" fill="#1565C0">DC Ausgangskette / DC Output Chain</text>
  
  <rect x="275" y="250" width="75" height="55" rx="5" fill="#FFCDD2" stroke="#F44336" stroke-width="2"/>
  <text x="312" y="270" text-anchor="middle" font-family="Arial, sans-serif" font-size="9" fill="#333" font-weight="bold">Diode</text>
  <text x="312" y="285" text-anchor="middle" font-family="Arial, sans-serif" font-size="8" fill="#666">MDK-55</text>
  <text x="312" y="298" text-anchor="middle" font-family="Arial, sans-serif" font-size="7" fill="#999">55A 1600V</text>
  
  <rect x="365" y="250" width="55" height="55" rx="5" fill="#fff" stroke="#607D8B" stroke-width="2"/>
  <text x="392" y="270" text-anchor="middle" font-family="Arial, sans-serif" font-size="9" fill="#333" font-weight="bold">V</text>
  <text x="392" y="285" text-anchor="middle" font-family="Arial, sans-serif" font-size="8" fill="#666">Volt</text>
  <text x="392" y="298" text-anchor="middle" font-family="Arial, sans-serif" font-size="7" fill="#999">0-500V</text>
  
  <rect x="435" y="250" width="55" height="55" rx="5" fill="#fff" stroke="#607D8B" stroke-width="2"/>
  <text x="462" y="270" text-anchor="middle" font-family="Arial, sans-serif" font-size="9" fill="#333" font-weight="bold">A</text>
  <text x="462" y="285" text-anchor="middle" font-family="Arial, sans-serif" font-size="8" fill="#666">Ampere</text>
  <text x="462" y="298" text-anchor="middle" font-family="Arial, sans-serif" font-size="7" fill="#999">0-10A</text>
  
  <rect x="505" y="250" width="75" height="55" rx="5" fill="#C8E6C9" stroke="#4CAF50" stroke-width="2"/>
  <text x="542" y="270" text-anchor="middle" font-family="Arial, sans-serif" font-size="9" fill="#333" font-weight="bold">Sicherung</text>
  <text x="542" y="285" text-anchor="middle" font-family="Arial, sans-serif" font-size="8" fill="#666">DC Fuse</text>
  <text x="542" y="298" text-anchor="middle" font-family="Arial, sans-serif" font-size="7" fill="#999">10A 500V</text>
  
  <rect x="460" y="110" width="160" height="70" rx="8" fill="#FFF9C4" stroke="#FBC02D" stroke-width="2"/>
  <text x="540" y="135" text-anchor="middle" font-family="Arial, sans-serif" font-size="10" fill="#333" font-weight="bold">Potentiometer</text>
  <text x="540" y="152" text-anchor="middle" font-family="Arial, sans-serif" font-size="9" fill="#666">0-10V Steuerung</text>
  <text x="540" y="168" text-anchor="middle" font-family="Arial, sans-serif" font-size="8" fill="#999">CN2 Port</text>
  
  <rect x="660" y="60" width="220" height="320" rx="10" fill="#F3E5F5" stroke="#9C27B0" stroke-width="2"/>
  <text x="770" y="85" text-anchor="middle" font-family="Arial, sans-serif" font-size="14" font-weight="bold" fill="#7B1FA2">PV Anschluss / PV Connection</text>
  
  <rect x="690" y="130" width="160" height="60" rx="8" fill="url(#safetyGrad)" filter="url(#shadow)"/>
  <text x="770" y="155" text-anchor="middle" font-family="Arial, sans-serif" font-size="11" fill="white" font-weight="bold">MC4 Buchse</text>
  <text x="770" y="175" text-anchor="middle" font-family="Arial, sans-serif" font-size="10" fill="#E8F5E9">Solar Connector</text>
  
  <rect x="690" y="220" width="160" height="80" rx="8" fill="url(#outputGrad)" filter="url(#shadow)"/>
  <text x="770" y="245" text-anchor="middle" font-family="Arial, sans-serif" font-size="11" fill="white" font-weight="bold">Wechselrichter</text>
  <text x="770" y="265" text-anchor="middle" font-family="Arial, sans-serif" font-size="10" fill="white">Inverter</text>
  <text x="770" y="285" text-anchor="middle" font-family="Arial, sans-serif" font-size="9" fill="#E1BEE7">MPPT Eingang / Input</text>
  
  <rect x="710" y="320" width="120" height="50" rx="8" fill="#4CAF50" filter="url(#shadow)"/>
  <text x="770" y="345" text-anchor="middle" font-family="Arial, sans-serif" font-size="11" fill="white" font-weight="bold">Batterie</text>
  <text x="770" y="360" text-anchor="middle" font-family="Arial, sans-serif" font-size="10" fill="#E8F5E9">wird geladen</text>
  
  <line x1="120" y1="150" x2="75" y2="165" stroke="#333" stroke-width="2" marker-end="url(#arrowhead)"/>
  <line x1="110" y1="195" x2="130" y2="195" stroke="#333" stroke-width="2" marker-end="url(#arrowhead)"/>
  <line x1="200" y1="195" x2="260" y2="150" stroke="#333" stroke-width="3" marker-end="url(#arrowhead)"/>
  <text x="230" y="160" font-family="Arial, sans-serif" font-size="9" fill="#FF9800" font-weight="bold">AC</text>
  
  <line x1="350" y1="190" x2="312" y2="250" stroke="#2196F3" stroke-width="3" marker-end="url(#arrowhead)"/>
  <line x1="350" y1="277" x2="365" y2="277" stroke="#2196F3" stroke-width="2" marker-end="url(#arrowhead)"/>
  <line x1="420" y1="277" x2="435" y2="277" stroke="#2196F3" stroke-width="2" marker-end="url(#arrowhead)"/>
  <line x1="490" y1="277" x2="505" y2="277" stroke="#2196F3" stroke-width="2" marker-end="url(#arrowhead)"/>
  <line x1="580" y1="277" x2="690" y2="160" stroke="#4CAF50" stroke-width="3" marker-end="url(#arrowhead)"/>
  <text x="630" y="200" font-family="Arial, sans-serif" font-size="9" fill="#4CAF50" font-weight="bold">DC</text>
  
  <line x1="770" y1="190" x2="770" y2="220" stroke="#9C27B0" stroke-width="3" marker-end="url(#arrowhead)"/>
  <line x1="770" y1="300" x2="770" y2="320" stroke="#9C27B0" stroke-width="3" marker-end="url(#arrowhead)"/>
  <line x1="460" y1="145" x2="440" y2="145" stroke="#FBC02D" stroke-width="2" stroke-dasharray="5,3"/>
  <text x="450" y="140" font-family="Arial, sans-serif" font-size="8" fill="#F57F17">CN2</text>
  
  <rect x="20" y="410" width="860" height="80" rx="8" fill="#fff" stroke="#ccc" stroke-width="1"/>
  <text x="450" y="430" text-anchor="middle" font-family="Arial, sans-serif" font-size="12" font-weight="bold" fill="#333">Legende / Legend</text>
  
  <rect x="40" y="445" width="20" height="15" fill="#FF9800"/>
  <text x="70" y="457" font-family="Arial, sans-serif" font-size="10" fill="#333">AC Seite / AC Side (230V)</text>
  
  <rect x="200" y="445" width="20" height="15" fill="#2196F3"/>
  <text x="230" y="457" font-family="Arial, sans-serif" font-size="10" fill="#333">DC Seite / DC Side (350-400V)</text>
  
  <rect x="400" y="445" width="20" height="15" fill="#4CAF50"/>
  <text x="430" y="457" font-family="Arial, sans-serif" font-size="10" fill="#333">Sicherheit / Safety</text>
  
  <rect x="550" y="445" width="20" height="15" fill="#9C27B0"/>
  <text x="580" y="457" font-family="Arial, sans-serif" font-size="10" fill="#333">PV System</text>
  
  <rect x="680" y="445" width="20" height="15" fill="#FBC02D"/>
  <text x="710" y="457" font-family="Arial, sans-serif" font-size="10" fill="#333">Steuerung / Control</text>
</svg>
